<?xml version="1.0" encoding="UTF-8" standalone="no"?>
<svg
   xmlns:dc="http://purl.org/dc/elements/1.1/"
   xmlns:cc="http://creativecommons.org/ns#"
   xmlns:rdf="http://www.w3.org/1999/02/22-rdf-syntax-ns#"
   xmlns:svg="http://www.w3.org/2000/svg"
   xmlns="http://www.w3.org/2000/svg"
   viewBox="0 0 386.22668 60"
   height="60"
   width="386.22668"
   xml:space="preserve"
   id="svg2"
   version="1.1"><metadata
     id="metadata8"><rdf:RDF><cc:Work
         rdf:about=""><dc:format>image/svg+xml</dc:format><dc:type
           rdf:resource="http://purl.org/dc/dcmitype/StillImage" /></cc:Work></rdf:RDF></metadata><defs
     id="defs6" /><g
     transform="matrix(1.3333333,0,0,-1.3333333,0,60)"
     id="g10"><g
       transform="scale(0.1)"
       id="g12"><path
         id="path14"
         style="fill:#2b60ab;fill-opacity:1;fill-rule:nonzero;stroke:none"
         d="m 1224.45,351.262 v 90.379 h 17.54 v -89.27 c 0,-33.531 17.77,-52.41 47.53,-52.41 28.64,0 46.85,17.324 46.85,51.301 v 90.379 h 17.55 V 352.59 c 0,-45.305 -25.98,-68.84 -64.85,-68.84 -38.41,0 -64.62,23.535 -64.62,67.512" /><path
         id="path16"
         style="fill:#2b60ab;fill-opacity:1;fill-rule:nonzero;stroke:none"
         d="m 1388.1,401.008 h 17.11 v -19.992 c 7.54,12.441 19.53,22.422 39.3,22.422 27.76,0 43.98,-18.645 43.98,-45.958 v -71.281 h -17.12 v 67.063 c 0,21.32 -11.54,34.648 -31.75,34.648 -19.77,0 -34.41,-14.441 -34.41,-35.976 v -65.735 h -17.11 v 114.809" /><path
         id="path18"
         style="fill:#2b60ab;fill-opacity:1;fill-rule:nonzero;stroke:none"
         d="m 1520.89,444.98 h 19.53 v -18.886 h -19.53 z m 1.12,-43.972 h 17.11 V 286.199 h -17.11 v 114.809" /><path
         id="path20"
         style="fill:#2b60ab;fill-opacity:1;fill-rule:nonzero;stroke:none"
         d="m 1563.08,401.008 h 18.87 l 38.63,-95.266 38.87,95.266 h 18.44 l -49.98,-115.695 h -15.1 l -49.73,115.695" /><path
         id="path22"
         style="fill:#2b60ab;fill-opacity:1;fill-rule:nonzero;stroke:none"
         d="m 1744.27,298.406 c 15.76,0 26.86,6.449 36.17,16.211 l 10.69,-9.539 c -11.56,-12.89 -25.55,-21.555 -47.33,-21.555 -31.52,0 -57.28,24.211 -57.28,59.973 0,33.301 23.32,59.953 55.08,59.953 33.98,0 53.51,-27.101 53.51,-60.851 0,-1.551 0,-3.321 -0.21,-5.989 h -91.06 c 2.44,-24.207 20.2,-38.203 40.43,-38.203 m 33.52,51.965 c -1.99,20.879 -13.99,38.645 -36.64,38.645 -19.77,0 -34.87,-16.438 -37.31,-38.645 h 73.95" /><path
         id="path24"
         style="fill:#2b60ab;fill-opacity:1;fill-rule:nonzero;stroke:none"
         d="m 1820.64,401.008 h 17.11 v -29.981 c 8.44,19.09 25.1,32.86 46.85,31.981 V 384.57 h -1.32 c -25.1,0 -45.53,-17.988 -45.53,-52.629 v -45.742 h -17.11 v 114.809" /><path
         id="path26"
         style="fill:#2b60ab;fill-opacity:1;fill-rule:nonzero;stroke:none"
         d="m 1896.58,300.852 8.65,12.214 c 12.46,-9.336 26.21,-14.668 39.77,-14.668 13.76,0 23.75,7.122 23.75,18.223 v 0.442 c 0,11.55 -13.54,15.996 -28.64,20.203 -17.99,5.105 -37.99,11.328 -37.99,32.433 v 0.438 c 0,19.765 16.45,32.871 39.09,32.871 14,0 29.55,-4.883 41.3,-12.656 l -7.75,-12.891 c -10.66,6.894 -22.87,11.113 -33.98,11.113 -13.56,0 -22.21,-7.109 -22.21,-16.66 v -0.449 c 0,-10.879 14.22,-15.098 29.53,-19.766 17.77,-5.332 36.86,-12.207 36.86,-32.851 v -0.45 c 0,-21.765 -17.97,-34.433 -40.84,-34.433 -16.45,0 -34.65,6.445 -47.54,16.887" /><path
         id="path28"
         style="fill:#2b60ab;fill-opacity:1;fill-rule:nonzero;stroke:none"
         d="m 2012.71,444.98 h 19.55 v -18.886 h -19.55 z m 1.11,-43.972 h 17.11 V 286.199 h -17.11 v 114.809" /><path
         id="path30"
         style="fill:#2b60ab;fill-opacity:1;fill-rule:nonzero;stroke:none"
         d="m 2072.22,316.621 v 69.277 h -15.99 v 15.11 h 15.99 v 34.648 h 17.11 v -34.648 h 36.41 v -15.11 h -36.41 V 318.84 c 0,-13.996 7.77,-19.106 19.32,-19.106 5.76,0 10.66,1.118 16.66,3.996 v -14.648 c -6,-3.105 -12.44,-4.883 -20.67,-4.883 -18.43,0 -32.42,9.102 -32.42,32.422" /><path
         id="path32"
         style="fill:#2b60ab;fill-opacity:1;fill-rule:nonzero;stroke:none"
         d="m 2144.82,255.77 5.78,13.546 c 5.55,-2.878 10.66,-4.218 17.99,-4.218 10.21,0 16.66,5.332 23.53,21.543 l -52.18,114.375 h 18.88 l 41.74,-95.723 36.88,95.723 h 18.2 l -48.18,-118.594 c -9.79,-23.77 -20.88,-32.434 -38.21,-32.434 -9.53,0 -16.64,2.004 -24.43,5.782" /><path
         id="path34"
         style="fill:#2b60ab;fill-opacity:1;fill-rule:nonzero;stroke:none"
         d="m 2333.33,343.047 v 0.437 c 0,32.434 25.34,59.973 59.97,59.973 34.43,0 59.74,-27.109 59.74,-59.531 v -0.442 c 0,-32.421 -25.54,-59.961 -60.17,-59.961 -34.42,0 -59.54,27.102 -59.54,59.524 m 102.17,0 v 0.437 c 0,24.661 -18.43,44.875 -42.63,44.875 -24.89,0 -41.98,-20.214 -41.98,-44.433 v -0.442 c 0,-24.644 18.21,-44.636 42.41,-44.636 24.88,0 42.2,19.992 42.2,44.199" /><path
         id="path36"
         style="fill:#2b60ab;fill-opacity:1;fill-rule:nonzero;stroke:none"
         d="m 2485.91,385.898 h -15.78 v 14.883 h 15.78 v 10 c 0,13.106 3.56,23.098 9.98,29.532 5.78,5.781 14.22,8.886 24.65,8.886 7.99,0 13.32,-0.886 18.87,-2.89 v -14.883 c -6.21,1.777 -10.88,2.89 -16.64,2.89 -13.32,0 -20,-7.988 -20,-24.433 v -9.317 h 36.42 V 385.898 H 2503 v -99.699 h -17.09 v 99.699" /><path
         id="path38"
         style="fill:#2b60ab;fill-opacity:1;fill-rule:nonzero;stroke:none"
         d="m 1220.01,104.395 v 0.429 c 0,43.977 32.87,80.391 78.61,80.391 28.21,0 45.09,-10 60.63,-24.649 l -11.98,-12.878 c -13.11,12.429 -27.78,21.316 -48.87,21.316 -34.42,0 -60.18,-27.969 -60.18,-63.731 v -0.449 c 0,-35.9685 25.98,-64.1795 60.18,-64.1795 21.32,0 35.31,8.2227 50.19,22.4414 l 11.55,-11.3398 c -16.21,-16.4141 -33.98,-27.3125 -62.18,-27.3125 -44.86,0 -77.95,35.3125 -77.95,79.9614" /><path
         id="path40"
         style="fill:#2b60ab;fill-opacity:1;fill-rule:nonzero;stroke:none"
         d="m 1374.78,60.4102 v 0.4492 c 0,24.6484 19.99,37.5312 49.07,37.5312 14.66,0 24.88,-2.0039 35.1,-4.8828 v 3.543 c 0,20.4292 -12.44,31.0942 -33.98,31.0942 -13.55,0 -24.21,-3.332 -34.87,-8.211 l -5.11,13.992 c 12.66,5.762 24.87,9.765 41.75,9.765 16.21,0 28.87,-4.433 37.09,-12.656 7.99,-7.988 11.99,-19.101 11.99,-33.7498 V 27.1094 h -16.87 v 17.0898 c -8.01,-10.2148 -21.11,-19.5429 -41.31,-19.5429 -21.55,0 -42.86,12.2187 -42.86,35.7539 m 84.38,8.8867 v 10.664 c -8.43,2.4414 -19.54,4.8829 -33.53,4.8829 -21.32,0 -33.54,-9.3243 -33.54,-23.0977 v -0.4375 c 0,-14.4453 13.33,-22.8711 28.88,-22.8711 21.09,0 38.19,12.6484 38.19,30.8594" /><path
         id="path42"
         style="fill:#2b60ab;fill-opacity:1;fill-rule:nonzero;stroke:none"
         d="m 1509.12,189.219 h 17.11 V 27.1094 h -17.11 V 189.219" /><path
         id="path44"
         style="fill:#2b60ab;fill-opacity:1;fill-rule:nonzero;stroke:none"
         d="m 1561.97,185.891 h 19.55 v -18.879 h -19.55 z m 1.09,-43.977 h 17.11 V 27.1094 h -17.11 V 141.914" /><path
         id="path46"
         style="fill:#2b60ab;fill-opacity:1;fill-rule:nonzero;stroke:none"
         d="m 1621.91,126.816 h -15.76 v 14.883 h 15.76 v 10 c 0,13.098 3.55,23.086 10,29.524 5.78,5.769 14.22,8.882 24.65,8.882 7.99,0 13.32,-0.886 18.86,-2.878 v -14.883 c -6.21,1.765 -10.87,2.883 -16.64,2.883 -13.32,0 -20,-8 -20,-24.426 v -9.317 h 36.43 v -14.668 h -36.19 V 27.1094 h -17.11 v 99.7066" /><path
         id="path48"
         style="fill:#2b60ab;fill-opacity:1;fill-rule:nonzero;stroke:none"
         d="m 1683.2,83.9531 v 0.4492 c 0,32.4217 25.31,59.9527 59.94,59.9527 34.43,0 59.77,-27.089 59.77,-59.5112 v -0.4415 c 0,-32.4296 -25.55,-59.9687 -60.2,-59.9687 -34.41,0 -59.51,27.0977 -59.51,59.5195 m 102.15,0 v 0.4492 c 0,24.6607 -18.44,44.8557 -42.64,44.8557 -24.86,0 -41.97,-20.195 -41.97,-44.4142 v -0.4415 c 0,-24.6562 18.2,-44.6445 42.4,-44.6445 24.88,0 42.21,19.9883 42.21,44.1953" /><path
         id="path50"
         style="fill:#2b60ab;fill-opacity:1;fill-rule:nonzero;stroke:none"
         d="m 1829.31,141.914 h 17.09 v -29.98 c 8.44,19.101 25.1,32.871 46.86,31.98 v -18.426 h -1.33 c -25.1,0 -45.53,-17.988 -45.53,-52.6364 V 27.1094 h -17.09 V 141.914" /><path
         id="path52"
         style="fill:#2b60ab;fill-opacity:1;fill-rule:nonzero;stroke:none"
         d="m 1914.8,141.914 h 17.09 v -19.988 c 7.56,12.429 19.55,22.437 39.32,22.437 27.75,0 43.96,-18.66 43.96,-45.9646 v -71.289 h -17.11 v 67.0625 c 0,21.3161 -11.54,34.6371 -31.74,34.6371 -19.78,0 -34.43,-14.434 -34.43,-35.977 V 27.1094 H 1914.8 V 141.914" /><path
         id="path54"
         style="fill:#2b60ab;fill-opacity:1;fill-rule:nonzero;stroke:none"
         d="m 2047.57,185.891 h 19.55 v -18.879 h -19.55 z m 1.12,-43.977 h 17.11 V 27.1094 h -17.11 V 141.914" /><path
         id="path56"
         style="fill:#2b60ab;fill-opacity:1;fill-rule:nonzero;stroke:none"
         d="m 2092.44,60.4102 v 0.4492 c 0,24.6484 19.98,37.5312 49.08,37.5312 14.65,0 24.86,-2.0039 35.08,-4.8828 v 3.543 c 0,20.4292 -12.44,31.0942 -33.99,31.0942 -13.53,0 -24.2,-3.332 -34.86,-8.211 l -5.12,13.992 c 12.68,5.762 24.88,9.765 41.76,9.765 16.21,0 28.87,-4.433 37.09,-12.656 7.99,-7.988 11.99,-19.101 11.99,-33.7498 V 27.1094 h -16.87 v 17.0898 c -8.01,-10.2148 -21.1,-19.5429 -41.31,-19.5429 -21.54,0 -42.85,12.2187 -42.85,35.7539 m 84.37,8.8867 v 10.664 c -8.42,2.4414 -19.53,4.8829 -33.53,4.8829 -21.31,0 -33.54,-9.3243 -33.54,-23.0977 v -0.4375 c 0,-14.4453 13.34,-22.8711 28.89,-22.8711 21.09,0 38.18,12.6484 38.18,30.8594" /><path
         id="path58"
         style="fill:#2b60ab;fill-opacity:1;fill-rule:nonzero;stroke:none"
         d="m 2216.34,7.78125 c 11.1,3.99605 15.76,9.77735 14.89,19.32815 h -8.01 v 23.3125 h 20.43 V 30.4375 C 2243.65,12.4609 2235.87,3.78906 2219,0 l -2.66,7.78125" /><path
         id="path60"
         style="fill:#2b60ab;fill-opacity:1;fill-rule:nonzero;stroke:none"
         d="m 2341.79,182.559 h 17.56 V 27.1016 h -17.56 V 182.559" /><path
         id="path62"
         style="fill:#2b60ab;fill-opacity:1;fill-rule:nonzero;stroke:none"
         d="m 2397.51,141.914 h 17.11 v -29.98 c 8.44,19.101 25.1,32.871 46.86,31.98 v -18.426 h -1.33 c -25.1,0 -45.53,-17.988 -45.53,-52.6364 V 27.1094 h -17.11 V 141.914" /><path
         id="path64"
         style="fill:#2b60ab;fill-opacity:1;fill-rule:nonzero;stroke:none"
         d="m 2471.69,141.914 h 18.87 l 38.63,-95.2656 38.87,95.2656 h 18.44 L 2536.54,26.2305 h -15.12 l -49.73,115.6835" /><path
         id="path66"
         style="fill:#2b60ab;fill-opacity:1;fill-rule:nonzero;stroke:none"
         d="m 2609.35,185.891 h 19.55 v -18.879 h -19.55 z m 1.11,-43.977 h 17.11 V 27.1094 h -17.11 V 141.914" /><path
         id="path68"
         style="fill:#2b60ab;fill-opacity:1;fill-rule:nonzero;stroke:none"
         d="m 2662.87,141.914 h 17.11 v -19.988 c 7.53,12.429 19.53,22.437 39.29,22.437 27.78,0 43.99,-18.66 43.99,-45.9646 v -71.289 h -17.11 v 67.0625 c 0,21.3161 -11.55,34.6371 -31.76,34.6371 -19.77,0 -34.41,-14.434 -34.41,-35.977 V 27.1094 h -17.11 V 141.914" /><path
         id="path70"
         style="fill:#2b60ab;fill-opacity:1;fill-rule:nonzero;stroke:none"
         d="m 2845.85,39.3164 c 15.77,0 26.88,6.4453 36.2,16.2109 l 10.66,-9.5429 c -11.56,-12.8789 -25.55,-21.5508 -47.3,-21.5508 -31.55,0 -57.31,24.2109 -57.31,59.9687 0,33.3007 23.32,59.9527 55.08,59.9527 33.98,0 53.51,-27.089 53.51,-60.8394 0,-1.5625 0,-3.3398 -0.21,-5.9961 h -91.06 c 2.45,-24.2187 20.2,-38.2031 40.43,-38.2031 m 33.52,51.9727 c -1.99,20.8589 -13.98,38.6329 -36.64,38.6329 -19.77,0 -34.86,-16.426 -37.31,-38.6329 h 73.95" /><path
         id="path72"
         style="fill:#2b60ab;fill-opacity:1;fill-rule:nonzero;stroke:none"
         d="M 0,208.242 V 441.691 H 116.43 V 210.625 c 0,-59.988 30.293,-88.516 76.629,-88.516 46.921,0 77.214,27.325 77.214,85.547 V 441.691 H 386.699 V 211.223 C 386.699,77.5664 310.066,18.1641 191.863,18.1641 74.2461,18.1641 0,78.1641 0,208.242" /><path
         id="path74"
         style="fill:#2b60ab;fill-opacity:1;fill-rule:nonzero;stroke:none"
         d="m 442.551,232.598 v 1.191 c 0,121.172 92.66,216.211 218.586,216.211 84.949,0 139.601,-35.637 176.422,-86.121 L 750.84,296.758 c -23.766,29.101 -51.09,48.711 -90.891,48.711 -58.207,0 -99.203,-49.903 -99.203,-110.489 v -1.191 c 0,-62.363 40.996,-111.074 99.203,-111.074 43.371,0 68.906,20.195 93.86,50.488 l 86.722,-61.777 C 801.324,57.3711 748.461,17.5781 656.98,17.5781 c -118.796,0 -214.429,90.8789 -214.429,215.0199" /><path
         id="path76"
         style="fill:#2b60ab;fill-opacity:1;fill-rule:nonzero;stroke:none"
         d="M 893.477,441.699 H 1008.72 V 25.8984 H 893.477 V 441.699" /></g></g></svg>